<svg xmlns="http://www.w3.org/2000/svg" width="31" height="30" viewBox="0 0 31 30">
                 <path
                  d="M8.02712822,18.984375 L8.02712822,23.8058651 C9.21763467,24.0594679 10.1069231,24.3247306 11.0340086,24.703125 C16.1081194,26.484375 16.1081194,26.484375 21.0412826,23.8125 C22.2628277,23.109375 23.766268,22.3125 25.6455682,21.421875 C24.8468656,20.8125 24.330058,20.8125 23.6253204,21 L19.3409994,22.4708017 C19.0533397,22.7889895 18.6106813,23.015625 18.0344021,23.015625 L12.5374489,23.015625 C12.2085713,23.015625 12.0206413,22.78125 12.0206413,22.5 C12.0206413,22.21875 12.2085713,21.984375 12.5374489,21.984375 L18.0344021,21.984375 C18.5512097,21.984375 18.7391397,21.703125 18.7391397,21.515625 C18.7391397,21.28125 18.5512097,21 18.0344021,21 L15.0275217,21 C14.9335567,21 14.7456267,20.90625 14.6046792,20.90625 C14.1348541,20.296875 12.6314139,18.984375 10.5172011,18.984375 L8.02712822,18.984375 Z M8.02712822,18 L10.5172011,18 C12.8193439,18 14.5107141,19.3125 15.2154517,20.015625 L18.0344021,20.015625 C19.0268738,20.015625 19.6230269,20.6878248 19.7136623,21.3422116 L23.3434254,20.109375 C24.6589356,19.6875 25.6455682,20.015625 26.8671134,21.1875 C26.9610784,21.28125 27.0550434,21.515625 26.9610784,21.609375 C26.9610784,21.796875 26.8671134,21.890625 26.6322009,21.984375 C24.4710056,23.109375 22.7326528,24 21.3231776,24.703125 C18.6451747,26.203125 17.2356995,27 15.7322593,27 C14.5107141,27 13.1012389,26.484375 10.6111661,25.6875 C9.88751248,25.4595007 9.00947993,25.139086 8.02712822,24.8261464 L8.02712822,25.5 C8.02712822,25.78125 7.79221568,26.015625 7.51032064,26.015625 L3.51680757,26.015625 C3.18793003,26.015625 3,25.78125 3,25.5 L3,17.484375 C3,17.203125 3.18793003,17.015625 3.51680757,17.015625 L7.51032064,17.015625 C7.79221568,17.015625 8.02712822,17.203125 8.02712822,17.484375 L8.02712822,18 Z M6.99351307,24 L6.99351307,18 L3.98663264,18 L3.98663264,24.984375 L6.99351307,24.984375 L6.99351307,24.3262526 C6.94660027,24.2127778 6.94834026,24.0901389 6.99351307,24 Z M18.529506,15.0070669 C17.5928291,16.3488074 17.1019131,17.625 17.0477695,17.625 C16.9538045,17.8125 16.718892,17.90625 16.5309619,17.90625 C16.2490669,17.90625 16.1081194,17.71875 16.0141544,17.484375 C16.0141544,17.4265977 15.5323487,15.2501656 14.0298596,12.5789848 C13.4318396,13.6567478 12.6230338,14.296875 11.7387462,14.296875 C10.4232361,14.296875 9.2956559,13.3125 8.5909183,12.421875 C6.99351307,10.59375 6.42972299,5.90625 7.79221568,3.28125 C7.79221568,3.09375 8.02712822,3 8.12109323,3 C8.21505824,3 8.40298827,3 8.49695328,3.09375 C9.53056843,3.984375 10.7051311,4.3125 11.9266763,4.6875 C13.2421865,5.109375 14.5107141,5.484375 15.4503643,6.609375 C16.4369969,7.78125 16.812857,8.90625 16.5309619,9.890625 C16.3729278,10.6395694 15.782988,11.3553663 14.8170191,11.8986438 C15.7584388,13.5376483 16.3233814,15.0123801 16.6249269,15.984375 C16.9204703,15.4142986 17.3399547,14.7123209 17.8833801,14.0132723 C17.1097574,13.3595771 16.9538045,12.6488655 16.9538045,12.09375 C16.9538045,11.296875 17.4236296,10.5 18.3162972,9.890625 C19.1149998,9.421875 19.8197374,9.1875 20.61844,9 C21.3231776,8.90625 22.1218802,8.71875 23.0615304,8.015625 C23.1554954,7.921875 23.3434254,7.921875 23.4373904,7.921875 C23.5313554,7.921875 23.766268,8.015625 23.766268,8.203125 C24.6589356,10.21875 23.954198,13.6875 22.7326528,14.90625 C22.1218802,15.703125 21.2292126,16.125 20.43051,16.125 C19.8650671,16.125 19.1181521,15.9137669 18.529506,15.0070669 L18.529506,15.0070669 Z M19.1997473,14.1397242 C19.5861729,14.8382414 20.037821,15.1875 20.524475,15.1875 C21.0412826,15.1875 21.6520552,14.90625 22.2628277,14.296875 C22.9675653,13.40625 23.5313554,10.921875 23.1554954,9.1875 C22.3567928,9.703125 21.5580901,9.890625 20.8533525,10.125 C20.1486149,10.3125 19.5378424,10.40625 18.8331048,10.921875 C18.2223322,11.296875 17.9404371,11.8125 17.9404371,12.28125 C17.9404371,12.7107936 18.1972248,13.0471736 18.4804268,13.3068075 C19.1361406,12.5948826 19.9271159,11.9361656 20.8533525,11.484375 C21.0412826,11.390625 21.3231776,11.484375 21.5580901,11.71875 C21.6520552,11.90625 21.5580901,12.1875 21.3231776,12.421875 C20.4938203,12.8285924 19.7864296,13.4577044 19.1997473,14.1397242 L19.1997473,14.1397242 Z M14.3055424,11.0530684 C15.1172909,10.6260776 15.5742445,10.2005748 15.7322593,9.609375 C15.9201893,8.8125 15.3094168,7.78125 14.8395917,7.21875 C14.1348541,6.28125 13.0072739,6 11.8327113,5.625 C10.6111661,5.390625 9.53056843,5.015625 8.40298827,4.3125 C7.60428566,6.609375 8.12109323,10.40625 9.2956559,11.8125 C10.0943585,12.796875 11.0340086,13.3125 11.7387462,13.3125 C12.4309594,13.3125 12.9871903,12.7245919 13.4964827,11.6820356 C12.6078179,10.266941 11.4353341,8.76874956 9.90642848,7.40625 C9.71849846,7.21875 9.71849846,6.890625 9.90642848,6.703125 C10.0943585,6.515625 10.4232361,6.515625 10.6111661,6.703125 C12.1798451,8.08991321 13.3876579,9.61066998 14.3055424,11.0530684 L14.3055424,11.0530684 Z"
                />
             </svg>