<svg
                width="24px"
                height="24px"
                viewBox="0 0 24 24"
                version="1.1"
                xmlns="http://www.w3.org/2000/svg"
                xmlns:xlink="http://www.w3.org/1999/xlink"
              >
                <path
                  d="M12.4089895,4.03123791 C13.7485007,4.09876908 14.9886603,4.48887382 16.1296279,5.19442993 C16.6582464,5.52133267 17.1483411,5.89803092 17.5870444,6.33854963 C18.6222165,7.37795112 19.343194,8.60047481 19.7157227,10.0231781 C19.8006304,10.3474673 19.858785,10.6770434 19.9001815,11.0099112 C19.9602514,11.4928439 19.9735182,11.9773726 19.947184,12.4623401 C19.8736878,13.8159162 19.4731491,15.0668489 18.7480818,16.2119262 C17.7541666,17.7815621 16.3802214,18.8832279 14.6404708,19.5291531 C14.1850095,19.6982504 13.7147252,19.8132628 13.2343461,19.887198 C12.8172888,19.9513776 12.3981566,19.9851731 11.9489397,19.9814025 C11.6821466,19.9867491 11.3891192,19.9687541 11.097209,19.937213 C9.97068529,19.8154574 8.92172768,19.4609835 7.94842095,18.8812329 C7.36164788,18.5317267 6.82397207,18.118799 6.341199,17.6354474 C5.84926883,17.1428988 5.43041596,16.5936718 5.07785736,15.993592 C4.644401,15.2558364 4.33599202,14.4695421 4.16270524,13.6311581 C4.10520898,13.3529935 4.06469027,13.0722155 4.0371192,12.7893227 C4.00332369,12.4424499 3.99366783,12.0950185 4.00386234,11.7470683 C4.03594214,10.651208 4.28001197,9.60530274 4.75574264,8.61645486 C5.23185237,7.62678903 5.87362793,6.75953716 6.69922394,6.03315312 C7.60057057,5.24013566 8.62277506,4.6620808 9.77806683,4.3257217 C10.1275332,4.22397606 10.4829446,4.1508788 10.8432638,4.09884888 C11.3631441,4.02379651 11.885618,4.00482394 12.4089895,4.03123791 Z M11.4171491,5.07470923 C11.1496778,5.09573666 10.8842214,5.12999102 10.6211591,5.18134264 C9.95324888,5.31175661 9.31749825,5.53545736 8.7174783,5.85637506 C7.37451571,6.57469925 6.37044589,7.62056459 5.70814165,8.99221546 C5.30770274,9.82150224 5.08944838,10.6987092 5.04146833,11.6177117 C5.02566783,11.9204948 5.02889975,12.2235571 5.05092469,12.5265397 C5.07550324,12.8645347 5.12063042,13.1993975 5.19580249,13.5294723 C5.49140349,14.8274274 6.10175761,15.9548489 7.03795711,16.9026394 C7.75757805,17.6311781 8.60156808,18.1681357 9.56090973,18.524804 C10.2145556,18.7677965 10.8905057,18.9040958 11.5859671,18.9407441 C11.8949945,18.9570434 12.2044409,18.9544499 12.5137476,18.9313277 C12.7877227,18.9108389 13.059583,18.876385 13.3289895,18.8243352 C13.981199,18.6983302 14.6021466,18.4807342 15.1915531,18.1746594 C16.2048399,17.6484748 17.0408499,16.9174224 17.6898474,15.9787292 C18.5158025,14.7840359 18.9245007,13.455996 18.9249962,12.0034274 L18.9249962,11.8982304 L18.9249962,11.8982304 C18.9233237,11.5304698 18.8882713,11.1658214 18.8273835,10.803208 C18.7129097,10.121592 18.5003411,9.47155711 18.1852289,8.85747232 C17.3978374,7.32292868 16.2048399,6.22427531 14.612401,5.56246983 C13.9052489,5.26858454 13.1661367,5.10742743 12.4022663,5.06475411 C12.0741865,5.0464 11.7454883,5.04887382 11.4171491,5.07470923 Z M16.2632539,12.0321297 C16.3238424,12.0321297 16.3836928,12.0343042 16.4439222,12.0466534 C16.6070943,12.0801496 16.8202613,12.2573666 16.8432439,12.4993616 C16.8493885,12.5640998 16.8379571,12.6270224 16.8278025,12.6896259 C16.6690195,13.6687382 16.253997,14.5241995 15.5711641,15.2434214 C14.9157426,15.9337556 14.1180768,16.3771671 13.1852289,16.5736359 C12.8877127,16.6362993 12.5867252,16.6674414 12.2827052,16.6680599 C12.0688998,16.6684988 11.8550743,16.6688778 11.6412688,16.6670224 C10.2132389,16.6546334 8.98074015,15.9690873 8.17990224,15.0236309 C7.81762793,14.5959401 7.5333985,14.1226633 7.34544838,13.5930474 C7.23941347,13.2942145 7.16886983,12.9871222 7.12703441,12.673187 C7.12198703,12.6352818 7.12104938,12.5968579 7.11793716,12.5586933 C7.09698953,12.302015 7.33900449,12.0477506 7.59879501,12.0335461 L7.65618404,12.0320798 L7.65618404,12.0320798 L16.2632539,12.0321297 L16.2632539,12.0321297 Z M15.6647701,13.0651671 L8.33054564,13.0654464 L8.33054564,13.0654464 C8.31867531,13.0654464 8.30680499,13.0695162 8.29619152,13.0714314 C8.29451571,13.0813666 8.29164289,13.0879302 8.29278005,13.0936958 L8.30477007,13.1397805 L8.30477007,13.1397805 C8.39374763,13.4312519 8.51863541,13.7063441 8.68136858,13.96402 C8.93892469,14.3718005 9.27215162,14.7069227 9.66546833,14.9834314 C10.2613387,15.4023242 10.9218274,15.6257057 11.6520618,15.6338454 C11.8753636,15.6363192 12.0987252,15.6356409 12.3220469,15.6338653 C12.6690394,15.6310923 13.007194,15.5728579 13.337209,15.4661247 C13.8178274,15.3106733 14.2423661,15.0571671 14.6215182,14.7262145 C15.1115332,14.2984838 15.4571491,13.7753915 15.6507651,13.153207 C15.6583262,13.1289476 15.6689995,13.1054863 15.6647701,13.0651671 Z M9.41196209,8.90903294 C9.97419651,8.91258254 10.452381,9.41017855 10.4361815,9.94609875 C10.4494085,10.4676948 9.98550823,10.9762434 9.40481995,10.9757649 C8.84585736,10.9752858 8.37363791,10.4956249 8.37311879,9.94376459 C8.3726005,9.37630324 8.86604688,8.9056399 9.41196209,8.90903294 Z M14.557217,8.9107192 C15.1045885,8.90487382 15.5873416,9.38732768 15.5867437,9.94391621 C15.5861446,10.4886743 15.1181347,10.9752379 14.5545636,10.9758369 C13.9777257,10.9764349 13.5169576,10.4717367 13.5201924,9.93643491 C13.5235012,9.39814065 13.994803,8.90186135 14.557217,8.9107192 Z"
                  id="happy"
                />
              </svg>