<svg
                width="24px"
                height="24px"
                viewBox="0 0 24 24"
                version="1.1"
                xmlns="http://www.w3.org/2000/svg"
                xmlns:xlink="http://www.w3.org/1999/xlink"
              >
                <path
                  d="M15.16196,4.99992 C15.01402,4.99992 14.87072,5.03688 14.73206,5.11086 L14.73206,5.11086 C14.59336,5.18482 14.48704,5.29576 14.41308,5.44368 L14.41308,5.44368 L11.9999938,9.43776 L9.58692,5.44368 C9.51296,5.29576 9.40664,5.18482 9.26796,5.11086 L9.26796,5.11086 C9.12926,5.03688 8.98596,4.99992 8.83804,4.99992 L8.83804,4.99992 L4.45568,4.99992 C4.27076,4.99992 4.1367,5.0785 4.05348,5.23568 L4.05348,5.23568 C3.97028,5.39284 3.98414,5.54538 4.0951,5.69332 L4.0951,5.69332 L8.08916,11.40704 C7.44196,12.2761 7.11838,13.2469 7.11838,14.31938 L7.11838,14.31938 C7.11838,15.20696 7.33564,16.02518 7.77018,16.77406 L7.77018,16.77406 C8.20472,17.52294 8.79642,18.11464 9.54532,18.5492 L9.54532,18.5492 C10.2942,18.98374 11.11244,19.201 11.9999938,19.201 L11.9999938,19.201 C12.88756,19.201 13.7058,18.98374 14.45468,18.5492 L14.45468,18.5492 C15.20356,18.11464 15.79528,17.52294 16.22982,16.77406 L16.22982,16.77406 C16.66436,16.02518 16.88162,15.20696 16.88162,14.31938 L16.88162,14.31938 C16.88162,13.2469 16.55802,12.2761 15.91086,11.40704 L15.91086,11.40704 L19.9049,5.69332 C20.01584,5.54538 20.02972,5.39284 19.9465,5.23568 L19.9465,5.23568 C19.8633,5.0785 19.72926,4.99992 19.54434,4.99992 L19.54434,4.99992 L15.16196,4.99992 Z M12.97078,9.5487 L15.16196,5.88748 L18.6845,5.88748 L15.30064,10.74138 C14.63496,10.11266 13.85836,9.71512 12.97078,9.5487 L12.97078,9.5487 Z M5.3155,5.88748 L8.83804,5.88748 L11.02922,9.5487 C10.14166,9.71512 9.36502,10.11266 8.69936,10.74138 L8.69936,10.74138 L5.3155,5.88748 Z M10.00296,17.77258 C9.39276,17.412 8.90738,16.9266 8.5468,16.3164 L8.5468,16.3164 C8.18622,15.70618 8.00594,15.04054 8.00594,14.31938 L8.00594,14.31938 C8.00594,13.59822 8.18622,12.93256 8.5468,12.32236 L8.5468,12.32236 C8.90738,11.71214 9.39276,11.22676 10.00296,10.86616 L10.00296,10.86616 C10.61316,10.50562 11.27884,10.32532 12,10.32532 L12,10.32532 C12.72114,10.32532 13.38682,10.50562 13.99702,10.86616 L13.99702,10.86616 C14.60722,11.22676 15.09262,11.71214 15.45318,12.32236 L15.45318,12.32236 C15.81376,12.93256 15.99406,13.59822 15.99406,14.31938 L15.99406,14.31938 C15.99406,15.04054 15.81376,15.70618 15.45318,16.3164 L15.45318,16.3164 C15.09262,16.9266 14.60722,17.412 13.99702,17.77258 L13.99702,17.77258 C13.38682,18.13314 12.72114,18.31344 12,18.31344 L12,18.31344 C11.27884,18.31344 10.61316,18.13314 10.00296,17.77258 L10.00296,17.77258 Z M11.72264,11.18516 C11.53772,11.24062 11.39904,11.35156 11.30658,11.51798 L11.30658,11.51798 L10.7796,12.62744 L9.5592,12.8216 C9.41126,12.8401 9.28182,12.89556 9.17088,12.98802 L9.17088,12.98802 C9.05992,13.0805 8.98134,13.19606 8.93512,13.33472 L8.93512,13.33472 C8.8889,13.47342 8.88426,13.61208 8.92124,13.75078 L8.92124,13.75078 C8.95822,13.88944 9.02294,14.01428 9.1154,14.12522 L9.1154,14.12522 L10.00296,14.98506 L9.80882,16.20546 C9.77182,16.40888 9.80882,16.58914 9.91978,16.74634 L9.91978,16.74634 C10.0307,16.9035 10.17862,17.00982 10.36354,17.0653 L10.36354,17.0653 C10.54846,17.12076 10.73338,17.10226 10.91826,17.00982 L10.91826,17.00982 L12,16.42734 L13.08172,17.00982 C13.26664,17.10226 13.45154,17.12076 13.63644,17.0653 L13.63644,17.0653 C13.82136,17.00982 13.96928,16.9035 14.08024,16.74634 L14.08024,16.74634 C14.19118,16.58914 14.22818,16.40888 14.19118,16.20546 L14.19118,16.20546 L13.99702,14.98506 L14.8846,14.12522 C14.97706,14.01428 15.04176,13.88944 15.07876,13.75078 L15.07876,13.75078 C15.11572,13.61208 15.11112,13.47342 15.06488,13.33472 L15.06488,13.33472 C15.01866,13.19606 14.94008,13.0805 14.82912,12.98802 L14.82912,12.98802 C14.71818,12.89556 14.58874,12.8401 14.44082,12.8216 L14.44082,12.8216 L13.2204,12.62744 L12.6934,11.51798 C12.60096,11.35156 12.46228,11.24062 12.27736,11.18516 L12.27736,11.18516 C12.1849,11.15742 12.09246,11.14356 12,11.14356 L12,11.14356 C11.90754,11.14356 11.8151,11.15742 11.72264,11.18516 L11.72264,11.18516 Z M10.97374,14.67996 L9.91978,13.65368 L11.36206,13.45956 L12,12.15594 L12.63794,13.45956 L14.08024,13.65368 L13.02624,14.67996 L13.27588,16.0945 L12,15.42882 L10.72412,16.12224 L10.97374,14.67996 Z"
                  id="path-1"
                />
              </svg>